# xmcd
#
# Track frame offsets:
#	150
#	15034
#	34509
#	55520
#	73447
#	93945
#	113523
#	132919
#	155979
#	170084
#	191263
#	210319
#	229686
#	241335
#	263998
#	280863
#
# Disc length: 4048 seconds
#
# Revision: 0
# Processed by: cddbd v1.5.2PL0 Copyright (c) Steve Scherf et al.
# Submitted via: audiograbber 1.83.01
#
DISCID=d00fce10
DTITLE=Esinchill - Everything To Lose!
DYEAR=2002
DGENRE=Rap
TTITLE0=Esinchill - Intro
TTITLE1=Esinchill - RCeason
TTITLE2=Esinchill, Na'te, Mahasin - Maybe Her Too
TTITLE3=Esinchill, Lil' Stevie - Throw Da Twos Up
TTITLE4=Esinchill - Strip Questions - AR Skit #1
TTITLE5=Esinchill - Tribute
TTITLE6=Esinchill - Star Gazen
TTITLE7=Esinchill - Celebration
TTITLE8=Esinchill - Crap Game
TTITLE9=Esinchill, Digital Underground - Let The Beat Breath -  AR Skit #2
TTITLE10=Esinchill - AR Skit
TTITLE11=Esinchill - Research
TTITLE12=Esinchill, The Elements - I'll Bet
TTITLE13=Esinchill - Flirt
TTITLE14=Esinchill, London - Part 1
TTITLE15=Esinchill - Get Yo Pay - AR Skit #3 - No Hook
EXTD=www.RapMusicGuide.com
EXTT0=
EXTT1=
EXTT2=
EXTT3=
EXTT4=
EXTT5=
EXTT6=
EXTT7=
EXTT8=
EXTT9=
EXTT10=
EXTT11=
EXTT12=
EXTT13=
EXTT14=
EXTT15=
PLAYORDER=
